<svg width="33" height="30" viewBox="0 0 33 30" fill="none" xmlns="http://www.w3.org/2000/svg">
<path fill-rule="evenodd" clip-rule="evenodd" d="M11.6772 1.04762C11.5861 1.10774 9.86325 3.21693 7.84875 5.73474L4.18606 10.3125L2.3895 10.3129C0.407562 10.3134 0.388625 10.3168 0.117812 10.7276C0.008 10.8942 0 11.0564 0 13.125C0 15.1787 0.008625 15.3568 0.115625 15.5191C0.339063 15.8579 0.469375 15.9038 1.30525 15.9375L2.08006 15.9687L3.87825 22.2633C4.86719 25.7254 5.71938 28.6192 5.77187 28.6942C5.82437 28.7692 5.94619 28.8825 6.04262 28.9461C6.21131 29.0573 6.58806 29.0617 15.9992 29.0617C25.4103 29.0617 25.7871 29.0573 25.9557 28.9461C26.0522 28.8825 26.174 28.7692 26.2265 28.6942C26.279 28.6192 27.1312 25.7254 28.1201 22.2633L29.9183 15.9687L30.6931 15.9375C31.529 15.9038 31.6593 15.8579 31.8827 15.5191C31.9897 15.3568 31.9984 15.1787 31.9984 13.125C31.9984 10.0836 32.1937 10.3135 29.6089 10.3129L27.8123 10.3125L24.1496 5.73474C22.1351 3.21693 20.4123 1.10774 20.3212 1.04762C20.091 0.895803 19.5254 0.90049 19.2892 1.05612C19.191 1.12087 19.0576 1.2543 18.9928 1.35255C18.8378 1.58762 18.8314 2.16037 18.9813 2.37668C19.0401 2.46168 20.4888 4.28199 22.2005 6.42186L25.3127 10.3125H15.9992H6.68563L9.79788 6.42186C11.5096 4.28199 12.9583 2.46168 13.0171 2.37668C13.167 2.16037 13.1606 1.58762 13.0056 1.35255C12.9408 1.2543 12.8074 1.12087 12.7091 1.05612C12.473 0.90049 11.9074 0.895803 11.6772 1.04762ZM30.1242 13.125V14.0625H15.9992H1.87419V13.125V12.1875H15.9992H30.1242V13.125ZM27.8721 16.0156C27.8709 16.0586 27.1578 18.5828 26.2873 21.625L24.7046 27.1562H15.9992H7.29381L5.71112 21.625C4.84056 18.5828 4.12744 16.0586 4.12625 16.0156C4.12462 15.9534 6.53975 15.9375 15.9992 15.9375C25.4586 15.9375 27.8738 15.9534 27.8721 16.0156ZM9.36781 17.9544C9.1225 18.1182 8.93656 18.4486 8.93762 18.7187C8.93931 19.1586 9.92106 24.7481 10.0243 24.9057C10.2946 25.3181 10.964 25.4489 11.3806 25.1706C11.6259 25.0067 11.8118 24.6764 11.8108 24.4062C11.8091 23.9664 10.8273 18.3769 10.7241 18.2193C10.4538 17.8069 9.78437 17.6761 9.36781 17.9544ZM15.4768 17.9311C15.3785 17.9959 15.2451 18.1293 15.1803 18.2276C15.0688 18.3967 15.0625 18.5755 15.0625 21.5625C15.0625 24.5495 15.0688 24.7283 15.1803 24.8974C15.3727 25.1892 15.6147 25.3117 15.9992 25.3117C16.3837 25.3117 16.6256 25.1892 16.8181 24.8974C16.9296 24.7283 16.9359 24.5495 16.9359 21.5625C16.9359 18.5755 16.9296 18.3967 16.8181 18.2276C16.6256 17.9357 16.3837 17.8133 15.9992 17.8133C15.7673 17.8133 15.5973 17.8517 15.4768 17.9311ZM21.6432 17.9347C21.5334 18.0017 21.3955 18.1298 21.3368 18.2193C21.2336 18.3769 20.2518 23.9664 20.2501 24.4062C20.2491 24.6764 20.435 25.0067 20.6803 25.1706C21.0969 25.4489 21.7663 25.3181 22.0366 24.9057C22.1398 24.7481 23.1216 19.1586 23.1232 18.7187C23.1243 18.4486 22.9384 18.1182 22.6931 17.9544C22.4175 17.7703 21.9279 17.7611 21.6432 17.9347Z" fill="white"/>
</svg>
