<svg width="320" height="180" viewBox="0 0 320 180" fill="none" xmlns="http://www.w3.org/2000/svg">
<rect width="320" height="180" fill="white"/>
<rect y="1" width="320" height="179" fill="#F5F5F5"/>
<path fill-rule="evenodd" clip-rule="evenodd" d="M151.805 58.0715C145.647 58.8277 140.451 61.2632 136.138 65.4149C131.98 69.4177 129.357 74.3495 128.285 80.1796C127.971 81.8882 127.899 86.4053 128.156 88.2509C129.271 96.2488 133.727 103.131 140.592 107.462C148.565 112.49 159.428 112.75 167.672 108.11L169.031 107.345L175.863 114.153C180.568 118.842 182.885 121.065 183.305 121.293C184.227 121.794 185.072 122 186.209 122C188.414 122 190.266 120.92 191.333 119.013C191.869 118.053 192.046 117.215 191.99 115.888C191.947 114.851 191.882 114.558 191.516 113.748C191.102 112.835 190.916 112.635 184.216 105.911L177.34 99.0111L177.969 97.9093C180.891 92.7875 182.036 86.705 181.178 80.8673C180.34 75.1772 177.917 70.2363 173.949 66.1292C169.706 61.7382 164.367 59.017 158.348 58.1778C157.106 58.0046 152.905 57.9363 151.805 58.0715ZM158.058 60.8172C163.102 61.5109 167.629 63.7239 171.395 67.338C179.667 75.2747 181.2 87.6755 175.125 97.5028C174.513 98.4925 174.379 98.8069 174.379 99.2531V99.7971L181.626 107.054C189.492 114.929 189.404 114.827 189.404 116.186C189.404 117.961 187.97 119.392 186.192 119.392C184.836 119.392 184.936 119.477 177.063 111.618L169.805 104.372H169.252C168.797 104.372 168.507 104.494 167.605 105.065C161.235 109.102 153.265 109.914 146.168 107.249C139.624 104.792 134.214 99.2672 131.965 92.7445C130.186 87.5838 130.136 82.2448 131.817 77.054C133.51 71.8303 137.39 66.9904 142.244 64.0476C146.998 61.1658 152.468 60.0486 158.058 60.8172ZM153.288 65.2383C152.658 65.4924 152.402 66.5437 152.816 67.1753C153.254 67.8439 154.483 67.8439 154.921 67.1753C155.146 66.832 155.182 66.09 154.99 65.7325C154.724 65.2352 153.893 64.994 153.288 65.2383ZM157.966 65.908C157.514 66.3263 157.419 66.8904 157.708 67.446C157.957 67.9263 158.037 67.967 159.863 68.5422C162.338 69.3218 164.451 70.5951 166.43 72.5012C168.947 74.9243 170.562 77.8278 171.328 81.3048C171.633 82.6901 171.7 85.8357 171.455 87.2732C170.825 90.9663 169.257 94.0474 166.691 96.6352C164.146 99.2015 160.987 100.816 157.275 101.449C155.837 101.694 152.691 101.627 151.305 101.322C148.976 100.809 146.584 99.7534 144.735 98.4226C143.453 97.4999 141.482 95.4619 140.634 94.1823C136.537 87.9999 136.807 80.0969 141.313 74.2888C143.192 71.8668 145.711 70.0157 148.837 68.76C149.63 68.4412 149.914 68.2614 150.056 67.986C150.427 67.2682 150.21 66.4968 149.549 66.183C149.008 65.9265 148.909 65.9343 147.842 66.3179C142.831 68.118 138.453 72.4032 136.492 77.4276C132.757 87.001 136.866 97.7528 145.979 102.249C150.083 104.274 155.07 104.806 159.496 103.693C166.458 101.941 171.948 96.4534 173.7 89.4939C174.441 86.5493 174.439 82.7492 173.694 79.8671C172.014 73.3625 167.264 68.2519 160.912 66.1154C159.159 65.5256 158.433 65.4745 157.966 65.908ZM147.165 77.1666C146.681 77.6507 146.601 78.2256 146.945 78.7452C147.057 78.9153 148.421 80.3344 149.976 81.8987L152.804 84.743L149.837 87.7123C146.68 90.8714 146.535 91.0736 146.862 91.8625C147.153 92.5652 147.99 92.8258 148.716 92.4403C148.902 92.3417 150.319 90.9914 151.867 89.4396L154.679 86.6183L157.494 89.4144C159.043 90.9522 160.449 92.3024 160.619 92.4149C160.789 92.5275 161.136 92.6195 161.391 92.6195C162.359 92.6195 162.964 91.44 162.418 90.6157C162.306 90.4457 160.955 89.0402 159.417 87.4925L156.62 84.6785L159.442 81.8665C160.994 80.3198 162.345 78.9025 162.444 78.7169C162.829 77.9906 162.569 77.1547 161.866 76.8636C161.077 76.5368 160.874 76.6817 157.714 79.8372L154.744 82.8031L151.899 79.9768C150.334 78.4224 148.914 77.0586 148.744 76.946C148.225 76.6021 147.649 76.6825 147.165 77.1666Z" fill="#9C9C9C"/>
</svg>
